<?xml version="1.0"?><svg width="640" height="480" xmlns="http://www.w3.org/2000/svg">
 <metadata id="metadata7">image/svg+xml</metadata>
 <g>
  <title>Layer 1</title>
  <g id="layer1">
   <path fill=" rgb(0, 0, 0)" id="path2830" d="m134.901703,475.203156c0,-0.805756 -2.326019,-1.140564 -5.168304,-0.743805c-3.552437,0.495911 -6.264259,-0.430389 -8.676033,-2.963074c-4.201019,-4.411987 -7.749756,-4.672272 -11.756935,-0.86441c-1.936493,1.84021 -4.758263,2.479645 -8.122475,1.84021c-3.157295,-0.600403 -5.509407,-0.148743 -6.070404,1.165466c-0.503212,1.179596 -0.982246,-1.932312 -1.062386,-6.91452c-0.111824,-6.857849 0.870422,-10.290314 4.04631,-14.123047c3.800308,-4.590851 4.225304,-7.180206 4.536545,-27.721924c0.339226,-22.305695 0.458504,-22.897217 7.729225,-38.125488c4.059334,-8.506744 8.368477,-18.44281 9.574371,-22.08075c1.258041,-3.797272 5.30999,-9.149719 9.512871,-12.567993c4.025848,-3.274841 7.321014,-7.213837 7.321014,-8.7547c0,-1.673737 -4.145111,-4.60318 -10.310555,-7.284668c-5.669693,-2.467194 -15.104309,-8.758301 -20.96785,-13.981445c-5.861656,-5.223022 -17.607384,-14.542786 -26.098892,-20.7099c-25.878998,-18.793457 -40.975861,-40.672363 -46.958668,-68.061218c-3.239313,-14.827957 -2.115442,-19.422287 15.58704,-63.753845c6.834572,-17.116287 6.458092,-27.351669 -1.847027,-50.206467c-8.284641,-22.799828 -8.286518,-35.653008 -0.00563,-52.969376c5.49268,-11.487637 16.04924,-23.247959 16.04924,-17.879635c0,1.585152 -0.922573,3.425362 -2.050144,4.086029c-1.127625,0.662392 -4.480637,6.089146 -7.453415,12.059658c-9.186684,18.451706 -6.808464,33.770248 9.296692,59.917549c4.020256,6.526649 8.195168,14.496758 9.27433,17.711372c3.153542,9.378204 3.664261,26.143799 1.149979,37.672073c-6.430161,29.491211 -5.479599,36.841476 6.118866,47.262802c10.826851,9.727081 17.301712,13.290649 28.395096,15.625c8.709579,1.833084 12.064476,1.709213 22.320999,-0.825348c6.638901,-1.640121 13.767944,-3.820313 15.842377,-4.845871c4.460083,-2.205063 35.794418,-32.432983 38.379562,-37.023849c0.984055,-1.744537 6.061066,-14.562256 11.285339,-28.481644c8.722595,-23.246185 12.854691,-31.845016 24.902328,-51.830521c10.551041,-17.502411 23.196991,-54.653763 23.2939,-68.429695c0.018616,-2.541576 4.044449,-12.087978 8.948151,-21.211109c12.129654,-22.567839 18.923233,-27.280854 39.203323,-27.190535c10.508179,0.047835 16.054871,0.968807 20.842987,3.462604c3.58783,1.868537 8.538086,3.582975 11.000183,3.811449c2.463959,0.228527 7.130951,2.85864 10.373993,5.844786c3.242981,2.986145 6.430115,4.921976 7.08432,4.300337c0.652313,-0.619909 3.384674,-0.605747 6.070435,0.035402c3.397705,0.811195 5.945526,3.432444 8.383392,8.625431c1.925293,4.103756 8.452393,11.983498 14.502289,17.511223c10.303131,9.410088 19.001526,22.679455 19.001526,28.984699c0,5.391304 -5.552277,12.842476 -12.453979,16.71241c-4.322174,2.42115 -7.25766,3.186295 -7.673279,1.997879c-0.484589,-1.379753 -1.77063,-1.369102 -4.53653,0.037186c-3.220612,1.638283 -3.673523,1.505478 -2.739807,-0.80941c0.814484,-2.015556 0.298248,-2.472504 -1.886139,-1.675522c-2.003601,0.729744 -2.557159,0.403809 -1.658783,-0.975891c1.789246,-2.754097 -1.211487,-2.654922 -4.301666,0.141731c-1.992432,1.802963 -2.225403,1.517853 -1.254364,-1.544456c1.062378,-3.350983 0.557281,-3.687508 -4.644623,-3.11187c-4.482452,0.495918 -5.596985,0.053131 -4.804901,-1.909286c0.687775,-1.702065 0.132355,-2.224571 -1.668091,-1.567474c-1.485474,0.541969 -2.700653,0.054909 -2.700653,-1.080368c0,-1.135338 -0.829437,-1.578125 -1.843323,-0.983025c-1.056763,0.619911 -1.369904,-0.090317 -0.732483,-1.666603c0.611328,-1.516121 0.134216,-2.748802 -1.062347,-2.748802c-1.196564,0 -1.710968,-0.713799 -1.142517,-1.585205c0.566589,-0.873138 -0.365326,-2.09523 -2.070679,-2.716919c-4.653961,-1.696762 -6.305298,2.591194 -2.778961,7.21032c1.709106,2.235168 3.708984,4.089546 4.44519,4.119652c0.736206,0.031883 0.859222,1.24511 0.272095,2.697456c-0.643005,1.594009 0.305695,3.127815 2.389404,3.862854c8.284668,2.92588 12.334686,11.627518 7.649078,16.427284c-1.908539,1.95356 -1.70163,2.174957 1.138794,1.220306c2.594421,-0.873192 3.196442,-0.492348 2.387543,1.510773c-0.594543,1.471802 -0.21994,2.676224 0.829407,2.676224c2.620514,0 -4.07431,10.554176 -7.962189,12.555573c-3.146118,1.617043 -8.929504,0.283386 -18.116241,-4.179863c-2.463959,-1.197334 -9.007782,-8.843307 -14.541443,-16.992332c-5.531769,-8.148972 -10.493225,-14.40287 -11.022552,-13.899872c-0.529297,0.502991 -0.067108,5.524162 1.028809,11.15641c1.095947,5.63221 1.992432,13.908745 1.992432,18.395012c0,4.659882 1.59726,11.13517 3.7276,15.104286c2.050201,3.822098 3.727631,8.621872 3.727631,10.669312c0,2.04744 2.495667,5.995316 5.548584,8.774231c5.513123,5.019379 5.61377,5.037109 15.819977,2.709839c8.944397,-2.038574 11.179108,-1.976593 17.283112,0.47818c3.856201,1.551529 10.155884,3.731766 14.000916,4.844086c7.589447,2.196213 9.374969,5.29039 3.052948,5.29039c-3.446198,0 -3.791016,0.727905 -2.773407,5.881927c0.639313,3.235855 0.667267,6.353088 0.065247,6.925156c-0.603851,0.573853 -4.911102,-2.430038 -9.57251,-6.675446c-10.480194,-9.541107 -17.025879,-11.216583 -25.258331,-6.462845c-4.555145,2.630157 -7.157013,3.092392 -10.517456,1.873871c-2.454651,-0.890915 -4.698669,-1.395691 -4.985687,-1.12291c-0.285156,0.272766 0.661621,5.270874 2.10611,11.106796c1.602875,6.478867 2.637268,20.433594 2.655914,35.826523l0.029816,25.212204l10.716919,5.242508c5.893372,2.881668 14.328949,7.56636 18.746155,10.408997c11.90976,7.663773 33.798309,28.538284 35.101135,33.476273c1.841431,6.969421 -2.855377,29.505371 -10.681488,51.238983c-4.009064,11.133392 -7.287506,21.393646 -7.287506,22.798096c0,3.510376 18.457306,17.112701 21.139313,15.578949c1.187286,-0.680145 5.429291,-3.471436 9.427124,-6.202515c7.820557,-5.345306 14.368134,-6.344299 17.568298,-2.681488c1.515259,1.735718 1.071686,2.352081 -1.845154,2.561066c-4.937256,0.354218 -6.005249,1.44519 -4.661407,4.769653c0.9151,2.270569 2.525452,1.976532 10.392578,-1.902161c10.383301,-5.118591 25.032837,-7.488403 27.056915,-4.376495c0.70639,1.085663 0.164032,1.974823 -1.205872,1.974823c-1.369904,0 -4.320343,1.216766 -6.555054,2.704468c-6.059235,4.034668 -3.399536,7.922333 5.419952,7.922333c7.889526,0 14.589935,2.516693 14.589935,5.479858c0,0.997131 -0.846161,1.315918 -1.880615,0.708527c-2.866486,-1.682617 -9.302246,0.814636 -9.302246,3.609528c0,3.735352 -6.212097,6.142303 -15.855438,6.142303c-5.863495,0 -11.207062,1.427521 -16.615845,4.440308c-7.015381,3.905243 -9.680573,4.364014 -22.168091,3.802582c-13.298309,-0.596832 -14.671936,-1.046753 -21.720856,-7.097015c-4.137665,-3.552826 -9.072998,-6.459259 -10.966675,-6.459259c-5.479584,0 -15.924347,3.917725 -18.200073,6.829529c-1.813477,2.318329 -2.335327,2.219208 -4.020233,-0.772278c-1.06424,-1.891571 -1.487335,-5.667694 -0.939362,-8.391602c0.725037,-3.600769 -0.085724,-5.908508 -2.969055,-8.462524c-4.935333,-4.369354 -4.983795,-8.78833 -0.229218,-20.67627c3.211334,-8.033936 3.563599,-11.792297 2.517975,-26.953217c-0.747406,-10.844635 -1.919708,-17.202972 -3.051025,-16.538788c-5.157166,3.028564 -46.610138,11.195343 -56.848053,11.198883c-12.019714,0.005341 -13.602081,0.600403 -52.943344,19.916443c-3.781662,1.857941 -10.910751,3.917725 -15.842377,4.581879c-8.649918,1.163605 -9.175537,1.576355 -14.819122,11.668274c-6.353714,11.360077 -11.736389,16.218262 -19.890564,17.955811c-7.209229,1.537292 -34.720886,21.535217 -36.810226,26.756561c-1.299049,3.244751 -0.603867,6.415039 2.933655,13.384491c4.584961,9.031006 6.704102,19.560425 2.773315,13.781219c-1.492905,-2.196198 -1.811615,-2.033264 -1.835846,0.93338c-0.029785,3.609619 4.573822,11.225494 8.251099,13.651917c1.082855,0.715546 3.869247,1.312439 6.189667,1.328369c8.422577,0.053192 19.079819,7.711517 19.079819,13.710419c0,4.077148 -0.15654,4.131958 -3.261673,1.181305c-2.955994,-2.809021 -3.317566,-2.828583 -3.848709,-0.210754c-0.795853,3.928406 -6.253098,5.299225 -12.334702,3.101196c-7.125336,-2.573486 -8.512054,-2.291748 -8.512054,1.726929c0,1.948212 -0.838684,3.542267 -1.8638,3.542267c-1.025085,0 -1.8638,-0.658875 -1.8638,-1.464783l0,0z"/>
  </g>
 </g>
</svg>